<?xml version="1.0" encoding="UTF-8"?>
<svg id="Capa_2" data-name="Capa 2" xmlns="http://www.w3.org/2000/svg" viewBox="0 0 116.28 135.06">
  <defs>
    <style>
      .cls-1 {
        fill: #6cbb88;
      }

      .cls-2 {
        fill: #0a0b0b;
      }
    </style>
  </defs>
  <g id="Capa_1-2" data-name="Capa 1">
    <g>
      <polygon class="cls-1" points="4.19 60.73 23.83 66.59 4.07 56.06 2.67 4.58 112.54 70.77 77.08 117.39 51.87 107.72 71.16 119.12 6.13 131.98 4.19 60.73"/>
      <path class="cls-2" d="M5.34,9.15l103.46,62.33-32.59,42.85-51.77-19.85,39.68,23.44-55.54,10.99-1.76-64.73,40.6,12.11L6.57,54.51l-1.23-45.36M0,0l.25,9.29,1.23,45.36.07,2.64h0s.19,7.02.19,7.02l1.76,64.73.16,6.02,5.91-1.17,55.54-10.99,12.69-2.51.14.06.07-.1.17-.03-.1-.06,2.16-2.84,32.59-42.85,3.43-4.51-4.85-2.92L7.96,4.8,0,0h0Z"/>
    </g>
  </g>
</svg>