<?xml version="1.0" encoding="UTF-8"?>
<svg id="Capa_1_copia" data-name="Capa 1 copia" xmlns="http://www.w3.org/2000/svg" viewBox="0 0 1838.07 613.09">
  <defs>
    <style>
      .cls-1 {
        fill: #6cbc88;
      }
    </style>
  </defs>
  <path class="cls-1" d="M698.07,370.19v14.97c-4.01,14.73-13.56,27.1-29.22,32.7l.02,109.79c16,5.62,25.56,18.23,29.2,33.05v14.97c-3.94,19.12-20.11,33.81-39.11,35.44-20.24,1.74-37.81-10.17-44.82-28.98h-110.05c-7.33,19.92-26.54,31.82-47.57,28.63-19.13-2.9-34.38-18.87-36.19-38.67-1.82-19.95,10.82-38.22,29.69-44.87,1.3-8.43,6.97-13.11,14.1-13.52,8.73-.5,11.35,7.66,14.24,13.4,10.82,6.78,21.55,13.99,25.6,27.45l110.41-.12c4.77-13.3,13.84-22,26.84-26.81l-.1-110.09c-14.9-5.06-23.75-15.79-27.89-29.97l-108.4-.05c-2.99,15.89-15.2,23.4-26.41,30.99-3.23,5.97-5.71,15.08-15.72,13.64-6.55-.94-11.61-6.13-12.92-14.01-18.92-6.92-31.13-24.97-29.49-44.42,1.64-19.49,16.42-35.4,34.91-38.78,20.52-3.74,39.18,6.86,47.7,25.13l112.54-.04c8.64-18.53,26.89-28.57,47.25-25.14,17.21,2.9,31.89,17.24,35.37,35.29ZM458.15,362.73c-9.01,3.17-11.83,12.48-9.54,19.21,2.99,8.79,11.89,12.29,19.48,9.74,8.22-2.76,12.24-11.24,9.9-18.96s-10.91-13.13-19.84-9.99ZM650.24,362.6c-9.02,2.83-12.4,12.32-9.73,19.54,3.02,8.19,11.25,12.26,19.62,9.5,7.45-2.46,11.85-10.84,9.73-18.54-2.19-7.97-10.56-13.34-19.63-10.49ZM460.84,553.22c-9.57,1.56-14.32,10.59-12.7,18.01,1.87,8.55,9.5,13.49,17.35,12.31,8.64-1.3,14.33-9.21,12.91-17.87-1.23-7.51-8.47-13.93-17.56-12.45ZM651.73,553.39c-9.45,2.1-13.84,11.34-11.47,19.3,2.29,7.67,10.1,12.53,18.27,10.59s13.51-9.95,11.46-18.4c-1.78-7.33-9.24-13.49-18.27-11.49Z"/>
  <path class="cls-1" d="M698.07,215.07v13.61c-3.68,18.8-19.47,33.34-37.84,35.5-20.07,2.35-37.89-8.65-45.48-27.5h-103.57c-8.89,21.89-32.2,33.05-54.32,25.49-21.22-7.25-34.02-30.03-27.33-52.69,6.01-20.34,27.23-33.98,49.28-30.22l52.5-96.71c-16.84-18.37-14.33-44.61,1.91-60.14,16.85-16.12,43.46-15.57,59.69.33,16.71,16.36,17.35,42.4,1.54,59.96l52.63,96.69c24.88-4.26,46.31,12.47,50.97,35.68ZM559.42,38.61c-9.09,2.14-13.95,11.21-11.04,20.09,2.32,7.1,10.55,11.77,18.32,9.69,8.14-2.18,12.98-10.17,11.18-18.38-1.71-7.79-9.81-13.43-18.46-11.4ZM512.47,209.1l101.29-.03c2.45-6.42,5.06-11.02,9.16-16.32l-52.74-96.91-14.69.2-52.44,96.39,9.43,16.67ZM470.12,206.26c-9.5.55-15.76,8.65-14.58,17.34,1.05,7.67,7.77,13.9,16.63,13.24,7.7-.57,14.56-7.57,13.95-16.37-.52-7.52-6.8-14.75-16-14.21ZM654.2,206.26c-9.55.63-15.62,8.79-14.46,17.37,1.05,7.74,7.97,13.87,16.56,13.23,7.96-.59,14.76-7.65,14.02-16.56-.61-7.4-7.03-14.63-16.13-14.04Z"/>
  <path class="cls-1" d="M0,58.58v-14.97C4,24.95,19.57,10.55,38.01,8.62c20.14-2.12,38.42,8.73,45.72,28.72l66.23.12-.03-22.45C149.92,6.18,156.1-.02,164.98,0l74.84.17c7.35.02,12.62,6.79,12.68,13.3l.22,23.98,66.12-.07c7.52-21.1,28.18-32.24,49-28.25,20.05,3.84,34.64,21.65,34.75,42.02.11,20.96-15.28,38.86-35.67,42.38s-40.73-7.84-48.21-28.45l-66.12-.03-.04,23.54c-.01,7.84-6.02,13.8-13.92,13.8l-73.69.06c-8.16,0-14.84-5.34-14.89-14l-.13-23.44-66.2.1c-7.14,19.79-25.59,30.99-45.82,28.76C19.52,91.86,3.81,77.27,0,58.58ZM224.98,74.87V27.63s-47.38.01-47.38.01v47.28s47.38-.06,47.38-.06ZM40.9,36.11c-9.58,1.49-14.66,10.34-12.91,18.4s9.25,13.13,17.44,11.93c8.17-1.19,14.1-8.96,12.79-17.63-1.11-7.38-8.26-14.11-17.33-12.69ZM357.75,36.02c-8.97,1.12-14.66,9.35-13.44,17.22,1.35,8.75,9.19,14.47,17.53,13.2,8.48-1.29,14.3-9.14,12.88-17.83-1.23-7.51-8.43-13.67-16.96-12.6Z"/>
  <path class="cls-1" d="M278.61,601.04c-2.1,7.07-7.45,10.54-14.18,10.54h-126.67c-6.61-.01-11.88-4.07-13.72-10.27l-38.89-130.89c-1.44-4.84,1.83-10.71,4.7-13.08,3.8-3.14,9.3-3.86,15.94-3.17l.16-47.3c.02-7.23,5.21-13.49,12.62-13.86l11.41-.57-39.62-106.85c-4.49-12.11-2.52-25.62,3.74-36.51l41.72-72.57c7.83-13.61,21.27-22,37.37-21.97l57.27.1c14.36.02,27.88,7.53,35.05,20.01l44.6,77.68c6.45,11.23,5.31,24.81.98,36.45l-38.6,103.9,12.51.5c7.22.29,11.69,7.44,11.7,13.97l.07,47.05c6.71-.73,12.65-.22,16.61,3.63s4.9,9.94,3.07,16.09l-37.85,127.12ZM283.89,261.6l-41.01-71.19c-2.37-4.12-7.48-8.16-12.2-8.18l-15.61-.09.14,60.59c21.49,7.51,32.49,28.43,28.13,49.6-4.07,19.77-22.22,34.48-43.34,33.9-20.39-.56-38.04-15.94-41.2-36.34-3.15-20.28,8.36-40.22,28.71-47.26l.06-60.45-17.4.18c-2.9.03-7.93,3.81-9.52,6.55l-41.36,71.62c-3.23,5.59-4.74,11.09-2.32,17.53l42.69,114.76,83.37-.06,42.91-115.46c1.88-5.06.84-10.74-2.03-15.71ZM196.34,268.82c-9.08,3-12.05,12.32-9.65,19.32,2.93,8.54,11.62,12.3,19.54,9.67s12.14-11.05,9.81-18.85c-2.37-7.96-10.7-13.12-19.71-10.14ZM269.1,453.92l-.08-33.56h-135.48s-.05,33.6-.05,33.6l135.62-.04ZM215.04,565.76l.14,18.32,39.73-.11,30.42-102.26H117.28s30.39,102.24,30.39,102.24l39.84.12.15-19.34c2.47-6.62,8.09-9.97,14.72-9.57,5.58.34,10.9,3.76,12.65,10.61Z"/>
  <path class="cls-1" d="M461.43,459.32c7.54-1.54,14.23,3.45,15.82,9.76,1.99,7.91-2.59,15.22-10.22,16.99-7.37,1.71-14.73-2.59-16.47-10.86-1.37-6.53,2.85-14.25,10.87-15.89Z"/>
  <path class="cls-1" d="M196.75,501.29c7.55-2.64,14.73,1.11,17.42,8.18s-.76,14.54-7.62,17.31-15.11-.7-17.78-7.06c-3.13-7.47.32-15.75,7.98-18.43Z"/>
</svg>