<?xml version="1.0" encoding="UTF-8"?>
<svg id="Capa_1_copia" data-name="Capa 1 copia" xmlns="http://www.w3.org/2000/svg" viewBox="0 0 1838.07 613.09">
  <defs>
    <style>
      .cls-1 {
        fill: #6cbc88;
      }
    </style>
  </defs>
  <path class="cls-1" d="M655.48,396.99v5.96s-20.04,19.09-20.04,19.09l-.29,32.99,20.32,19.45v5.96s-20.48,48.62-20.48,48.62c-1.46,3.54-5.36,6.43-9.16,6.26l-23.62-1.05-22.88,22.87,1.07,23.61c.17,3.76-2.72,7.74-6.22,9.18l-48.14,19.87c-3.79,1.57-8.46-.32-10.97-3.13l-14.92-16.7h-32.67s-15.55,17.34-15.55,17.34c-2.23,2.49-7.08,3.82-10.34,2.48l-48.15-19.91c-3.52-1.46-6.42-5.28-6.25-9.15l1.07-23.6-22.88-22.87-23.62,1.04c-3.78.17-7.71-2.76-9.15-6.24l-19.91-48.12c-1.58-3.82.27-8.42,3.13-10.97l16.68-14.91v-32.71s-17.28-15.5-17.28-15.5c-3-2.69-3.8-7.5-2.2-11.3l20.87-49.54c2.12-5.04,10.52-4,15.29-3.39l4.37-30.48c.8-5.57,7.37-7.86,11.42-6.83,5.45,1.39,7.71,6.15,7,11.8l-2.8,21.98,19.15-18.78-1.16-22.39c-.24-4.61,2.04-8.62,6.31-10.38l48.08-19.89c3.8-1.57,8.43.23,10.97,3.08l14.93,16.72h32.66s14.93-16.72,14.93-16.72c2.52-2.83,7.17-4.68,10.97-3.12l48.13,19.88c3.51,1.45,6.41,5.4,6.24,9.16l-1.07,23.61,22.9,22.9,23.6-1.04c3.78-.17,7.69,2.7,9.15,6.23l20.48,48.61ZM474.26,363.09c-42.94,5.5-71.78,44.82-66.03,86.14,5.73,41.16,43.91,70.44,85.13,65.2,41.53-5.28,71.52-43.61,66.13-85.27-5.29-40.94-42.6-71.54-85.23-66.08Z"/>
  <path class="cls-1" d="M510.03,0l4.98,1.05c47.73,6.25,91.28,32.33,118.59,71.87,11.97,17.33,19.16,36.09,21.88,55.84l-.31,17.73c-7.63,56.25-60.47,80.52-114.62,72.07-45.49-7.1-86.84-32.31-113.58-69.66-12.86-17.97-20.91-37.8-22.65-59.45-2.56-31.8,12.72-60.78,40.29-76.2,13.96-7.81,28.74-11.1,44.06-13l21.38-.23ZM595.78,194.94c27.79-10.25,43.46-36.01,40.25-65.01-2.05-18.54-9.5-35.23-20.95-50.41-24.35-32.26-61.05-53.79-101.22-59.4-18.47-2.58-35.97-.83-52.62,6.06-25.31,10.48-40.19,34.59-37.88,62.06,5.98,71.2,102.29,132.56,172.42,106.7Z"/>
  <path class="cls-1" d="M270.23.46c25.01,3.13,47.61,15.07,63.1,35.49,22.03,29.03,22.58,67.96,1.44,97.64-11.42,16.04-27.44,27.47-46.32,33.54l6.38,27.88c1.24,5.4-1.95,10.32-6.77,11.69-4.53,1.28-10.27-1.2-11.53-6.53l-6.84-29c-32.12,3.07-62.29-9.03-82.06-33.42-24.78-30.57-24.69-73.26-.04-103.83C203.12,14.66,225,3.51,249.13.45h21.1ZM310.39,132.66c28.54-26.88,27.33-69.59-1.53-95.16s-69.92-24.56-97.72-.57c-30.03,25.91-30.72,70.04-1.27,96.64,28.18,25.46,72.36,25.61,100.52-.92Z"/>
  <path class="cls-1" d="M132.73,542.11c-3.42,1.66-8.25.19-10.87-2.42l-24.59-24.44c-3.34-3.32-4.48-7.95-2.37-12.37l6.13-12.85-7.68-18.49-15.11-5.48c-2.58-.94-5.37-5.43-5.35-8.36.06-13.65-.47-26.38.57-39.66.41-5.26,8.75-7.11,13.77-8.33-5.38-14.65-19.25-34.14-6.34-39.45,5.04-2.07,9.76.25,12.62,4.33-.04-4.59.84-8.48,3.63-11.25l25.87-25.76c1.79-1.78,7.43-2.2,9.66-1.11l13.5,6.61,18.66-7.72,5.03-13.96c1.47-4.08,5.55-6.49,9.83-6.51l34.83-.1c3.65-.01,8.12,2.29,9.38,5.74l5.41,14.81,18.35,7.39,15.48-6.81c4.5-1.98,8.53,1.74,12.83,5.92l5.55-31.65c.9-5.12,5.19-8.57,9.71-8.26,5.11.35,9.83,4.5,9.11,10.51-1.62,13.42-4.15,27.23-7.28,40.23-.25,1.06-2.9,3.45-2.19,4.18l3.3,3.38c3.64,3.73,8.57,7.99,5.8,13.92l-6.61,14.18,7.67,18.58,13.29,4.64c3.79,1.32,7.11,4.98,7.12,9.24l.15,35.95c.01,3.6-2.52,8.09-5.84,9.26l-14.53,5.13-7.75,18.65,6.29,12.98c1.37,2.83,1.47,8.13-1.07,10.69l-26.87,26.96c-2.67,2.68-7.83,2.47-10.94,1.02l-13-6.06-18.44,7.74-5.1,14.24c-1.18,3.29-5.3,6.12-8.92,6.13l-35.58.11c-5.14.02-8.53-2.95-10.16-7.53l-4.63-13.01-18.62-7.62-13.73,6.65ZM191.71,389.33c-28.82,3.16-47.71,29.01-44.36,56.02,3.39,27.35,27.95,46.55,54.88,43.85,27.84-2.79,47.87-27.81,44.91-55.34-2.91-27.08-26.95-47.66-55.43-44.53Z"/>
  <path class="cls-1" d="M87.29,276.96c-4.93-2.37-7.31-3.5-10.99-6.55-16.07-13.33-28.04-30.19-30.71-51.66-3.55-28.57,10.28-55.99,34.56-71.69,34.17-22.09,79.94-16.82,107.41,13.04,26.02,28.29,26.16,70.29.62,98.75-25.51,28.42-66.34,34.75-100.9,18.12ZM169.55,250.48c25.11-22.64,24.43-59.6-.31-81.64-24.32-21.67-61.85-21.61-86.18,0s-25.11,60.34.62,82.57c24.32,21.01,61.45,21.09,85.86-.93Z"/>
  <path class="cls-1" d="M414.08,214.53c-3.5,4.68-8.78,5.45-12.72,3.09-4.54-2.71-6.37-8.73-3.13-13.52,7.21-10.69,14.74-20.71,22.79-30.81,3.55-4.45,9.53-5.17,13.71-2.03s4.87,9.1,1.48,13.64l-22.13,29.62Z"/>
  <path class="cls-1" d="M86.44,340.4c.44,6.29-3.62,10.48-8.88,10.81-4.9.31-9.77-3.35-10.17-9.06-.92-13.2-.65-26.02.6-39.13.53-5.61,5.21-9.03,9.91-8.84,5.75.23,9.65,4.92,9.07,11-1.11,11.63-1.4,22.96-.53,35.22Z"/>
  <path class="cls-1" d="M302.68,272.44c.33,6.24-4.48,10.05-9.02,10.31-5.71.33-9.8-3.76-10.1-9.71l-1.88-37.01c-.29-5.63,3.57-9.91,8.72-10.23,4.88-.3,9.99,3.24,10.29,8.92l1.99,37.73Z"/>
  <path class="cls-1" d="M381.41,280.89c-1.95,5.18-6.95,7.13-11.23,6.06s-8.56-6.26-6.8-11.52c4.38-13.14,9.58-25.56,15.79-37.86,2.33-4.61,8.46-5.43,11.97-3.7,5.12,2.52,6.8,7.87,4.45,12.96-5.14,11.16-9.68,22.11-14.17,34.06Z"/>
  <path class="cls-1" d="M573.6,185.54c-2.97,4.97-7.76,6.17-12.72,4.26l-115.33-69.12c-4.54-2.72-5.8-8.71-3.15-13.15l43.65-72.97c3.12-5.21,9.05-6.43,14.32-3.28l113.06,67.72c5.12,3.07,6.46,9.13,3.55,14l-43.39,72.53ZM581.57,102.34l-69.48-41.58,16.71,50.9,52.77-9.32ZM503.01,94.06l-10.95-32.3-22.48,37.69,33.44-5.39ZM523.06,131.86c-3.35.53-8.25-2.41-9.27-5.41l-4.87-14.3-31.01,5.67,69.52,41.55-9.68-29.82-14.7,2.31ZM567.62,158.16l22.62-37.63-33.67,5.72,11.05,31.91Z"/>
  <path class="cls-1" d="M301.23,104.22l-53.58,26.8c-6.89,3.45-14.45,3.44-20.95-.57-6.03-3.72-9.96-10.25-9.96-18.38v-52.47c0-7.8,3.59-14.07,9.21-17.89,6.56-4.46,14.48-4.63,21.69-1.03l53.22,26.57c7.09,3.54,11.08,10.92,11.22,18.07.13,7.11-3.32,15.15-10.85,18.91Z"/>
  <path class="cls-1" d="M128.19,256.04c-17.8-7.01-35.27-14.5-47.18-28.25-8.85-10.73-8.66-23.42-1.3-34.63,7.93-12.08,21.73-17,35.43-10.45,5.79-14.3,19.61-19.49,33.49-15.68,11.92,3.28,20.87,11.94,21.61,25.04,1.09,19.22-7.47,36.69-16.16,53.93-4.87,9.67-15.21,14.23-25.9,10.02Z"/>
</svg>