<?xml version="1.0" encoding="UTF-8"?>
<svg id="Capa_1" data-name="Capa 1" xmlns="http://www.w3.org/2000/svg" viewBox="0 0 2029.03 1080">
  <defs>
    <style>
      .cls-1 {
        stroke: #000;
        stroke-miterlimit: 10;
        stroke-width: 3px;
      }
    </style>
  </defs>
  <path class="cls-1" d="M1464.36,671.51l-14.72,12.27c-5.31,4.43-12.82,4.17-18.07-.47-12.32-10.89-27.57-23.65-18.47-34.76l11.81-14.43c2.89-3.53,3.71-8.58,1.73-13.07-1.41-3.21-5.84-6.42-10.16-6.8l-18.43-1.61c-14.29-1.25-13.47-22.88-11.42-40.15.67-5.63,6.12-10.07,11.42-10.57l18.38-1.75c4.2-.4,8.64-3.54,9.97-6.72,2.08-4.93.93-9.76-2.21-13.58l-12.34-15.01c-3.92-4.77-1.98-12.53,1.82-16.76,12.22-13.61,23.51-27.46,35.85-17.25l14.37,11.89c3.18,2.63,9.33,2.42,13.04.14,8.01-4.94,5.01-16.3,7.9-30.16,1.6-7.67,9.82-10.24,17.71-9.62l.04-166.44c0-34.76,27.54-62,62.27-61.99l234.86.06c33.81,0,61.3,27.21,61.33,60.99l.17,194.57c7.81,1.57,14.33,6.01,16.25,13.13l16.06,59.54,20.44.38c1.98.04,5.71,2.81,6.23,4.74l7.95,29.74c.8,2.99-1.32,7.01-3.94,8.53l-16.56,9.58,15.41,57.16c3.17,11.77-3.15,23.42-15.02,25.63-11.53,2.15-22.97-6.02-23.53-19.35-7.24-4.34-14.58-7.59-23.29-10.47l-.2,113.46c-.06,34.64-28.22,61.08-62.57,61.09l-232.38.05c-34.5,0-63.28-25.73-63.37-60.85l-.2-72.1c-10.27,1.17-16.9-4.73-17.72-13.56l-1.72-18.35c-.31-3.26-4.39-7.36-7.03-8.41-3.31-1.31-8.69-1.2-11.68,1.29ZM1555.75,670.88c-5.9-4.7-16.84-.44-17.72,6.86l-2.73,22.64c-.95,7.9-10.05,10.91-17.81,10.25l.24,73.39c.08,25.36,21.99,44.54,47.08,44.53l234.94-.05c25.66,0,46.45-20.59,46.49-46.1l.15-117.69c-29.86-5.78-59.26-3.66-89.38,4.44l25.06,43.48c6.1,10.56,2.3,23.52-7.8,29.23-9.68,5.48-22.7,2.6-28.62-7.64l-30.92-53.47c-21.2,5.4-40.86-6.26-47.45-26.58-6.59-20.32,3.19-44.1,24.47-49.79l46.08-12.31c40.6-10.84,82.56-34.78,103.89-71.85-4.01-8.99-3.13-18.57,4.66-25.52l-.13-199.17c-.02-25.59-21.04-45.99-46.48-45.99l-234.99-.04c-24.81,0-47.01,19.1-47.04,44.62l-.21,168.96c29.34-1.22,10,33.93,26.63,40.42,4.14,1.62,9.23.67,12.5-2.09l13.49-11.43c5.81-4.92,13.84-4.25,19.12.99l16.18,16.07c4.82,4.78,5.84,12.75,1.26,18.32l-11.78,14.33c-2.74,3.33-3.47,8.26-1.91,12.4,1.17,3.12,5.63,6.85,9.55,7.2l18.12,1.6c15.54,1.37,14.4,19.55,12.98,38.52-.49,6.57-5.62,11.77-12.06,12.39l-18.46,1.79c-4.44.43-8.72,3.95-10.05,7.83-1.27,3.7-.4,8.73,2.18,11.83l11.95,14.38c3.27,3.94,4.09,10.78.87,15.16-6.22,8.45-13.18,15.39-21.65,21.84-3.25,2.48-10.51,2.34-13.54-.07l-17.17-13.67ZM1499.17,532.38c-31.52,6.32-50.04,36.66-43.43,66.65,6.44,29.23,35.55,48.24,64.93,42.4,29.97-5.95,49.78-35.11,44-64.82-5.82-29.92-34.29-50.5-65.5-44.24ZM1772.03,650.46c22.9-4.26,44.61-4.89,66.87-2.1,13.62,2.08,25.97,5.39,39.72,10.76l-31.93-119.12c-9.66,13-20.88,23.49-33.89,33.1-16.63,11.9-34.29,20.8-53.94,28l13.18,49.37ZM1912.37,595.84l-4.84-17.65-9.94-.21,6.21,23.07,8.56-5.22ZM1711.68,666.06l45.8-12.54-12.8-47.82-47.74,12.43c-13.96,4.22-20.15,19.21-15.13,32.68,4.6,12.32,17.06,19.25,29.86,15.25Z"/>
  <path class="cls-1" d="M1973.82,629.28c3.53,2.05,4.16,6.89,2.94,9.41-1.45,3.01-6.23,5.74-9.44,3.89l-30.7-17.69c-3.63-2.09-4.18-7.53-1.82-10.72,2.08-2.82,6.65-3.68,10.24-1.6l28.77,16.7Z"/>
  <path class="cls-1" d="M1948.45,584.45c-4.69,1.28-8.67-1.75-9.51-5.71-.75-3.53,1.61-7.64,5.63-8.71l32.5-8.67c3.55-.95,7.77,1.86,8.87,4.76.95,2.5-.66,8.26-3.82,9.13l-33.68,9.2Z"/>
  <path class="cls-1" d="M1927.52,547.4c-2.22,3.87-6.9,5.04-10.22,3.38-3.13-1.57-5.11-6.5-3.17-9.88l16.76-29.25c1.86-3.24,5.89-4.75,9.26-3.77,3.96,1.16,5.65,5.63,4.4,9.91l-17.03,29.61Z"/>
  <path class="cls-1" d="M1762.07,452.1l-160.21.04c-17.01,0-32.46-13.12-32.49-30.63l-.18-102.63c-.03-18.48,14.31-32.46,32.75-32.46l159.44-.03c18.52,0,33.23,13.72,33.24,32.46l.04,100.18c0,18.08-13.52,33.07-32.59,33.07ZM1709.56,376.97c2.7-1.56,4.84-5.17,4.76-7.97-.06-2.08-2.33-6.05-4.36-7.21l-40.3-23.2c-2.13-1.23-6.79-.77-8.54.5-2.12,1.53-3.86,5.15-3.85,7.98l.05,44.93c0,2.47,1.85,6.11,3.52,7.28,1.68,1.19,6.71,1.91,8.55.84l40.17-23.15Z"/>
  <path class="cls-1" d="M1711.97,797.51l-50.82.07c-4.23,0-7.62-3.26-7.88-6.73-.35-4.74,3-8.2,7.91-8.2l50.83.05c3.92,0,7.06,3.62,7.25,6.93.22,3.78-2.89,7.88-7.3,7.88Z"/>
</svg>