<?xml version="1.0" encoding="UTF-8"?>
<svg id="Capa_1" data-name="Capa 1" xmlns="http://www.w3.org/2000/svg" viewBox="0 0 2029.03 1080">
  <defs>
    <style>
      .cls-1 {
        stroke: #0b0b0b;
        stroke-miterlimit: 10;
        stroke-width: 4.48px;
      }
    </style>
  </defs>
  <path class="cls-1" d="M1377.52,759.39v-345.72c3.55-16.8,17.68-29.5,35.71-29.71l11.84-.14.43-14.29c.57-18.8,16.66-33.26,35.37-33.27h24.04c19.18,0,34.95,15.15,35.45,34.4l.35,13.23,23.65-.09,36.84-73.88c6.66-13.36,18.29-21.46,33.68-21.45l136.93.03c13.81.39,25.45,7.64,31.56,19.86l37.76,75.5,132.09.22c18.6.03,32.06,14.39,34.71,32.3l-.39,340.3c-.02,18.57-18.04,32.5-35.55,32.5h-538.51c-18.42,0-32.33-13.23-35.96-29.78ZM1794.65,383.87l-32.53-64.98c-2.14-4.28-6.74-6.52-11.51-6.55h-135.81c-4.76.03-9.37,2.27-11.51,6.55l-32.53,64.98h223.89ZM1496.75,383.87l-.13-11.94c-.07-6.32-5.33-11.84-11.86-11.84h-23.74c-6.52,0-11.79,5.52-11.86,11.85l-.12,11.93h47.71ZM1794.32,479.27l169.72-.04v-59.47c-.61-6.85-4.92-11.58-12.28-12.05h-538.1c-7.36.47-11.67,5.2-12.29,12.05v59.48s169.78,0,169.78,0c61.04-63.37,162.07-63.35,223.18.03ZM1670.8,456.09c-73.24,6.74-125.59,71.73-118.53,143.33,7.05,71.47,70.83,124.19,142.33,117.61,71.99-6.62,125.2-70.36,118.63-142.47-6.47-71.1-69.65-125.17-142.44-118.47ZM1552.09,669.96c-32.44-51.37-32.41-115.42-.06-166.94l-150.67-.05v167.04s150.73-.05,150.73-.05ZM1964.06,669.98v-166.92s-150.73.05-150.73.05c32.43,51.36,32.45,115.49-.02,166.86h150.75ZM1964.06,752.79v-58.97s-169.79,0-169.79,0c-61.05,63.38-162.07,63.36-223.12,0h-169.78s0,59.48,0,59.48c.62,6.84,4.93,11.59,12.29,12.05h538.1c7.33-.47,11.85-5.14,12.3-12.56Z"/>
  <path class="cls-1" d="M1928.91,455.24l-24.47.12c-6.66.03-11.51-5.63-11.77-11.35-.28-6.23,4.74-12.38,11.75-12.39h23.87c6.63,0,11.47,5.52,11.76,11.34.27,5.48-4.01,12.25-11.15,12.28Z"/>
  <path class="cls-1" d="M1853.23,432.3c6.79-2.2,12.91,2,14.75,7.61,2.04,6.23-1.56,12.79-7.67,14.79s-12.09-1.16-14.47-6.83c-2.44-5.82.28-13.26,7.39-15.57Z"/>
  <path class="cls-1" d="M1671.96,479.91c59.71-6.03,111.53,37.84,117.42,95.87,5.97,58.84-37.22,111.51-95.95,117.45-58.38,5.9-110.91-36.64-117.31-95-6.41-58.39,35.8-112.25,95.84-118.32ZM1673.15,503.77c-46.9,5.44-78.9,48.04-73.15,93.27,5.74,45.18,47.07,77.59,92.25,72.33,45.54-5.29,78.63-46.76,73.28-92.4-5.27-44.9-45.81-78.6-92.38-73.2Z"/>
  <path class="cls-1" d="M1719.03,359.95l-72.05.07c-6.73,0-11.55-5.69-11.81-11.38-.28-6.19,4.7-12.42,11.8-12.42h71.45c6.71,0,11.52,5.58,11.81,11.39.26,5.3-3.97,12.34-11.21,12.34Z"/>
  <path class="cls-1" d="M1683.21,550.62c-20.65.7-35.72,15.79-36.29,35.93-.19,6.58-5.49,11.52-11.38,11.76-6.15.25-12.41-4.66-12.34-11.78.29-32.55,25.86-58.4,58.3-59.57,6.83-.24,12,4.28,12.88,10.32.88,5.95-3.48,13.08-11.17,13.34Z"/>
</svg>