<?xml version="1.0" encoding="UTF-8"?>
<svg id="Capa_1" data-name="Capa 1" xmlns="http://www.w3.org/2000/svg" viewBox="0 0 2029.03 1080">
  <defs>
    <style>
      .cls-1 {
        fill: #fff;
      }
    </style>
  </defs>
  <path class="cls-1" d="M1804.49,287.72l-.04-35.29c-.01-10-7.97-17.49-17.45-17.73-8.63-.22-18.01,6.85-18.05,16.67l-.13,36.82c-.04,10.27,8.77,17.95,18.2,17.75,9.36-.2,17.48-7.65,17.47-18.22ZM1870.85,336.24l35.86-35.96c7.04-7.06,5.89-18.86-.81-25.09-6.5-6.04-17.48-6.95-24.38-.07l-36.23,36.16c-7.3,7.29-6.48,18.81.37,25.31,6.81,6.46,17.78,7.07,25.19-.35ZM1930.9,412.68c10.61-.07,16.95-10.45,16.13-19.14-.85-8.97-8.1-16.27-17.89-16.26l-35.74.05c-10.25.02-17.85,8.95-17.55,18.35.29,9.03,7.72,17.29,17.59,17.23l37.46-.24Z"/>
  <path d="M1699.41,843.09h-15.05c-11.34-2.07-21.41-6.75-29.9-15.23l-88.26-88.24-13.32,12.99c-21.31,20.77-54.56,20.05-75.5-.85l-49.3-49.23c-21.79-21.76-21.77-55.44-.02-77.24l95.54-95.71c51.41-51.51,84.77-117.49,98.95-188.79-15.43-23.5-10.82-53.56,10.33-71.15,20-16.63,51.49-16.93,71.02,2.6l203.11,203.1c19.78,19.78,19.68,51.24,2.49,71.81-17.56,20.61-47.64,25.08-70.79,9.79-51.34,10.2-99.1,30.37-142.29,60.39l9.74,10.35c19.61,20.83,18.81,53.35-1.14,73.71l-12.69,12.95,37.85,38.05c14.92,15,19.4,36.82,11.69,57.18-6.58,17.35-22.84,30.54-42.46,33.52ZM1881.41,500.22l-202.75-202.74c-7.02-7.02-18.55-5.22-24.32.79-6.52,6.79-7.4,17.72-.19,24.93l202.49,202.5c7.14,7.14,18.7,5.63,24.65-.67,6.28-6.65,7.59-17.35.12-24.82ZM1642.53,614.26c48.61-42.16,103.66-70.51,165.21-86.89l-155.58-155.61c-16.45,62.07-45.51,117.41-86.9,165.29l77.27,77.21ZM1502.87,726.79c7.36,7.1,17.47,6.97,24.9.54l88.74-88.79-75.65-75.63-87.59,87.59c-7.69,7.35-7.84,18.6-.59,26.16l50.18,50.13ZM1680.53,675.11c6.32-6.56,5.14-17.47-.67-23.35l-12.22-12.37-25.9,24.41,25.32,25.29,13.48-13.98ZM1679.65,802.69c7.11,7.1,18.07,6.53,24.91-.02,6.22-5.95,7.87-17.46.82-24.53l-88.89-88.99-25.21,25.19,88.37,88.34Z"/>
  <path d="M1870.85,336.24c-7.41,7.43-18.38,6.82-25.19.35-6.85-6.5-7.67-18.02-.37-25.31l36.23-36.16c6.89-6.88,17.88-5.96,24.38.07,6.7,6.22,7.85,18.03.81,25.09l-35.86,35.96Z"/>
  <path d="M1930.9,412.68l-37.46.24c-9.87.06-17.31-8.2-17.59-17.23-.3-9.4,7.3-18.33,17.55-18.35l35.74-.05c9.79-.01,17.04,7.29,17.89,16.26.82,8.7-5.52,19.08-16.13,19.14Z"/>
  <path d="M1804.49,287.72c.01,10.57-8.11,18.02-17.47,18.22-9.43.2-18.24-7.47-18.2-17.75l.13-36.82c.04-9.82,9.42-16.89,18.05-16.67,9.48.24,17.44,7.73,17.45,17.73l.04,35.29Z"/>
  <path d="M1527.71,676.89c-7.11,7.12-18.05,5.91-24.47-.24-6.39-6.11-7.85-17.53-.9-24.49l26.1-26.19c7.01-7.03,17.88-6.48,24.6-.22s8.03,17.73,1.07,24.7l-26.4,26.44Z"/>
</svg>