<?xml version="1.0" encoding="UTF-8"?>
<svg id="Capa_1" data-name="Capa 1" xmlns="http://www.w3.org/2000/svg" viewBox="0 0 1080 1080">
  <path d="M243.51,720.15v-360.29c5.54-33.66,33.09-62.03,68.84-62.03h439.33c35.88,0,64.05,28.63,68.89,63.36v357.61c-4.84,34.69-33.04,63.36-68.89,63.36h-439.34c-35.7,0-63.34-28.41-68.84-62.02ZM788.29,455.86l.04-102.23c-.35-13.34-10.24-23.5-23.89-23.7h-464.85c-13.41.15-23.83,10.39-23.83,23.7v102.24s512.53,0,512.53,0ZM765.01,750.07c13.61-.74,23.29-10.66,23.29-23.82v-238.1s-512.55,0-512.55,0v238.12c-.01,13.59,10.44,23.53,23.85,23.81h465.41Z"/>
  <path d="M673.88,643.27c9.18,9.27,7.65,23.9-.84,32.45-8.11,8.18-23.01,10.04-32.08,1.06l-31.99-31.67-31.08,30.94c-9,8.96-23.26,8.52-32.12.57-9.03-8.11-11.45-23.37-2.27-32.67l31.97-32.42-31.98-32.3c-8.95-9.04-6.88-23.89,1.7-32.14,8.46-8.13,23.04-9.42,32.08-.46l31.69,31.44,32-31.69c9.04-8.95,23.98-7.1,32.07,1.04,8.82,8.86,9.7,23.67.63,32.8l-31.17,31.37,31.4,31.7Z"/>
  <path d="M466.11,565.25c-.02-14.13,10.2-24.63,23.66-24.79,12.25-.15,23.72,9.9,23.7,23.31l-.08,54.81c-.06,35.75-29.57,63.63-64.34,63.8-35.43.17-64.96-28.45-65.02-64.57l-.1-53.07c-.02-13.59,10.34-24.11,23.54-24.28s23.91,10.51,23.9,24.33l-.03,53.04c0,9.97,8.31,17.46,17.74,17.34s17.13-7.66,17.12-17.5l-.07-52.43Z"/>
  <path d="M723.12,377.48c14.15,0,23.42,7.98,22.93,15.99-.5,8.19-10.71,14.81-24.06,14.82h-142.05c-13.52,0-23.8-6.49-24.34-14.81-.52-8.08,9.03-15.99,22.7-15.99h144.82Z"/>
  <path d="M336.35,375.73c10.24-3.03,20.03,2.92,22.61,12.49,2.5,9.24-2.75,19.1-12.2,21.9-9.37,2.78-19.34-2.28-22.35-12.02-2.73-8.83,1.81-19.37,11.94-22.37Z"/>
  <path d="M393.24,375.87c10.08-3.32,20.05,2.49,22.9,11.96,2.74,9.11-2.38,18.87-11.31,21.99-9.49,3.32-19.62-1.69-22.86-10.9-3.23-9.19,1.16-19.73,11.27-23.06Z"/>
  <path d="M453.06,375.8c10.11-3.18,20.02,2.68,22.72,12.21,2.61,9.23-2.46,19.2-12.18,22.11-9.08,2.72-19.25-2.19-22.33-12.1-2.67-8.59,1.66-19.04,11.78-22.22Z"/>
</svg>