<?xml version="1.0" encoding="UTF-8"?>
<svg id="Capa_2" data-name="Capa 2" xmlns="http://www.w3.org/2000/svg" viewBox="0 0 48.67 13.02">
  <defs>
    <style>
      .cls-1 {
        fill: #fff;
      }
    </style>
  </defs>
  <g id="Capa_1-2" data-name="Capa 1">
    <g>
      <path class="cls-1" d="M8.85,3.41v9.61c1.88,0,3.41-1.52,3.41-3.41V0c-1.88,0-3.41,1.52-3.41,3.41Z"/>
      <path class="cls-1" d="M4.42,3.41v9.61c1.88,0,3.41-1.52,3.41-3.41V0c-1.88,0-3.41,1.52-3.41,3.41Z"/>
      <path class="cls-1" d="M0,3.41v9.61c1.88,0,3.41-1.52,3.41-3.41V0C1.52,0,0,1.52,0,3.41Z"/>
      <circle class="cls-1" cx="41.72" cy="7.09" r=".58"/>
      <g>
        <path class="cls-1" d="M22.64,4.65c-.75,0-1.31.45-1.83,1.01-.28-.64-.76-1.01-1.58-1.01-.75,0-1.29.41-1.77.92h-.03l-.11-.77h-1.23v5.76h1.51v-3.96c.4-.43.77-.65,1.1-.65.55,0,.81.31.81,1.2v3.41h1.5v-3.96c.41-.43.78-.65,1.11-.65.55,0,.8.31.8,1.2v3.41h1.51v-3.59c0-1.45-.57-2.32-1.79-2.32Z"/>
        <path class="cls-1" d="M28.32,4.65c-1.37,0-2.69,1.16-2.69,3.03s1.26,3.03,2.87,3.03c.71,0,1.44-.25,2.01-.64l-.51-.93c-.41.26-.82.4-1.3.4-.85,0-1.47-.49-1.6-1.44h3.55c.04-.13.07-.41.07-.7,0-1.58-.82-2.75-2.41-2.75ZM27.08,7.09c.11-.83.65-1.27,1.26-1.27.74,0,1.09.49,1.09,1.27h-2.35Z"/>
        <path class="cls-1" d="M35.47,4.37l.05.91c-.41-.38-.81-.63-1.46-.63-1.25,0-2.42,1.15-2.42,3.03s.93,3.03,2.36,3.03c.6,0,1.17-.33,1.6-.74h.04l.11.6h1.22V2.34h-1.5v2.03ZM35.47,8.86c-.34.43-.68.6-1.08.6-.76,0-1.19-.6-1.19-1.79s.55-1.77,1.19-1.77c.36,0,.73.11,1.08.43v2.53Z"/>
        <rect class="cls-1" x="38.6" y="4.79" width="1.51" height="5.76"/>
        <path class="cls-1" d="M39.36,2.21c-.52,0-.88.33-.88.82s.36.83.88.83.87-.33.87-.83-.36-.82-.87-.82Z"/>
        <polygon class="cls-1" points="46.51 7.17 48.48 4.79 46.83 4.79 44.86 7.27 44.82 7.27 44.82 2.34 43.33 2.34 43.33 10.56 44.82 10.56 44.82 9.09 45.63 8.17 47.03 10.56 48.67 10.56 46.51 7.17"/>
      </g>
    </g>
  </g>
</svg>