<?xml version="1.0" encoding="UTF-8"?>
<svg id="Capa_2" data-name="Capa 2" xmlns="http://www.w3.org/2000/svg" viewBox="0 0 30.24 13.02">
  <defs>
    <style>
      .cls-1 {
        fill: #fff;
      }
    </style>
  </defs>
  <g id="Capa_1-2" data-name="Capa 1">
    <g>
      <g>
        <path class="cls-1" d="M11.69,2.59s-.06-.08-.1-.12c.09.42.11.87.08,1.31-.01.54-.12,1.1-.31,1.64-.31.86-.85,1.69-1.61,2.37-.34.31-.71.57-1.09.79-.07.04-.14.08-.21.12-.91.46-1.98.61-3.03.38.14.25.31.49.51.72,1.46,1.61,3.95,1.75,5.58.31.01-.01.03-.02.04-.04.26-.24.49-.51.67-.79.15-.27.29-.55.41-.84.21-.58.33-1.17.37-1.75.04-1.49-.43-2.93-1.31-4.1Z"/>
        <path class="cls-1" d="M11.45,10.59s-.03.02-.04.04c-1.63,1.43-4.11,1.3-5.58-.31-.36-.4-.62-.85-.79-1.33-.05-.14-.09-.28-.13-.43-.4-1.61.32-3.64,1.96-5.13.31-.28.64-.53.98-.74,1.02-.64,2.12-.95,3.12-.92-2.45-2.31-6.29-2.38-8.83-.09-.93.84-1.56,1.89-1.88,3.01-.61,2.1-.15,4.45,1.43,6.19,1.73,1.91,4.34,2.56,6.66,1.88.02,0,.03-.01.05-.02.08-.02.16-.05.23-.07.04-.02.09-.03.13-.05.05-.02.1-.04.15-.06.06-.02.12-.05.17-.07.04-.02.07-.03.11-.05.06-.03.13-.06.19-.09.03-.02.06-.03.09-.05.06-.03.12-.06.18-.1.03-.02.07-.04.1-.06.05-.03.11-.06.16-.1.04-.02.08-.05.12-.07.05-.03.09-.06.14-.09.05-.03.09-.06.14-.1.04-.03.07-.05.11-.08.05-.04.11-.08.16-.12.03-.02.06-.05.09-.07.06-.05.11-.1.17-.15.02-.02.04-.04.06-.06.12-.11.23-.22.34-.33.01-.02.03-.03.04-.05.09-.1.18-.2.26-.3.02-.03.04-.05.07-.08.08-.1.16-.21.24-.32.04-.05.07-.1.1-.16.04-.06.08-.13.12-.19.02-.03.04-.06.05-.09-.18.29-.41.55-.67.79Z"/>
      </g>
      <g>
        <path class="cls-1" d="M17.78,3.39h-2.34v6.02h1.08v-1.99h1.22c1.22,0,2.07-.81,2.07-2.01s-.83-2.01-2.03-2.01ZM17.49,6.56h-.98v-2.28h.98c.77,0,1.22.41,1.22,1.13s-.45,1.15-1.22,1.15Z"/>
        <path class="cls-1" d="M22.32,8.53h-.02l-1.04-3.54h-1.13l1.57,4.43s-.06.23-.06.25c-.12.41-.34.57-.77.57-.06,0-.25,0-.3-.02v.82c.05.01.35.02.41.02,1.01,0,1.5-.37,1.88-1.47l1.6-4.6h-1.09l-1.04,3.54Z"/>
        <path class="cls-1" d="M27.65,4.21c.78,0,1.39.5,1.53,1.25h1.06c-.13-1.29-1.2-2.16-2.59-2.16-1.71,0-2.8,1.19-2.8,3.11s1.08,3.11,2.8,3.11c1.42,0,2.41-.78,2.59-2.07h-1.06c-.17.73-.74,1.16-1.53,1.16-1.04,0-1.7-.85-1.7-2.2s.66-2.19,1.7-2.19Z"/>
      </g>
    </g>
  </g>
</svg>