<?xml version="1.0" encoding="UTF-8"?>
<svg id="Capa_2" data-name="Capa 2" xmlns="http://www.w3.org/2000/svg" viewBox="0 0 48.67 7.38">
  <defs>
    <style>
      .cls-1 {
        fill: #fff;
      }
    </style>
  </defs>
  <g id="Capa_1-2" data-name="Capa 1">
    <g>
      <g>
        <rect class="cls-1" width="2.46" height="2.47"/>
        <polygon class="cls-1" points="4.93 0 2.46 2.47 2.46 7.38 4.93 7.38 4.93 2.47 7.38 2.47 7.38 0 4.93 0"/>
      </g>
      <g>
        <polygon class="cls-1" points="10.1 2.17 12.91 2.17 12.91 6.28 14.16 6.28 14.16 2.17 16.96 2.17 16.96 1.09 10.1 1.09 10.1 2.17"/>
        <polygon class="cls-1" points="17.99 6.28 24.5 6.28 24.5 5.2 19.24 5.2 19.24 4.22 24.18 4.22 24.18 3.14 19.24 3.14 19.24 2.17 24.5 2.17 24.5 1.09 17.99 1.09 17.99 6.28"/>
        <polygon class="cls-1" points="39.22 4.54 34.75 1.09 33.72 1.09 33.72 6.28 34.97 6.28 34.97 2.83 39.43 6.28 40.47 6.28 40.47 1.09 39.22 1.09 39.22 4.54"/>
        <polygon class="cls-1" points="31.44 3.14 26.78 3.14 26.78 1.09 25.53 1.09 25.53 6.28 26.78 6.28 26.78 4.22 31.44 4.22 31.44 6.28 32.69 6.28 32.69 1.09 31.44 1.09 31.44 3.14"/>
        <path class="cls-1" d="M48.18,1.44c-.34-.29-.72-.35-.99-.35h-4.21c-.27,0-.65.06-.99.35-.31.26-.49.67-.49,1.12v2.26c0,.45.18.86.49,1.12.34.29.72.35.99.35h4.21c.27,0,.65-.06.99-.35.31-.26.49-.67.49-1.12v-2.26c0-.45-.18-.86-.49-1.12ZM47.42,2.51v2.35c0,.19-.05.23-.09.26-.04.04-.14.08-.26.08h-3.97c-.13,0-.22-.04-.26-.08-.04-.03-.09-.07-.09-.26v-2.35c0-.19.05-.23.09-.26.04-.04.14-.08.26-.08h3.97c.13,0,.22.04.26.08.04.03.09.07.09.26Z"/>
      </g>
    </g>
  </g>
</svg>